<?xml version="1.0" standalone="no"?><!DOCTYPE svg PUBLIC "-//W3C//DTD SVG 1.1//EN" "http://www.w3.org/Graphics/SVG/1.1/DTD/svg11.dtd"><svg t="1767642899442" class="icon" viewBox="0 0 1024 1024" version="1.1" xmlns="http://www.w3.org/2000/svg" p-id="5532" xmlns:xlink="http://www.w3.org/1999/xlink" width="200" height="200"><path d="M519.5776 476.9792c28.4672 0 51.6096 23.1424 51.6096 51.6096 0 28.4672-23.1424 51.6096-51.6096 51.6096-28.4672 0-51.6096-23.1424-51.6096-51.6096 0-28.4672 22.9376-51.6096 51.6096-51.6096z m0 0" fill="#13227a" p-id="5533"></path><path d="M519.5776 407.9616c66.56 0 120.6272 53.8624 120.6272 120.6272s-54.0672 120.6272-120.6272 120.6272-120.6272-54.0672-120.6272-120.6272c0-66.56 54.0672-120.6272 120.6272-120.6272z m130.8672-147.456a298.1888 298.1888 0 0 0-130.8672-30.1056c-13.5168 0-27.0336 0.8192-40.3456 2.6624l-19.456-99.328a68.7104 68.7104 0 0 0 38.2976-61.6448c0-38.0928-30.9248-69.0176-69.0176-69.0176s-68.8128 30.9248-68.8128 69.0176c0 37.0688 29.2864 67.1744 65.9456 68.8128l19.2512 98.7136c-50.7904 12.9024-96.4608 39.1168-132.9152 74.3424l-39.5264-36.4544c1.024-3.4816 1.6384-7.168 1.6384-10.8544 0-21.504-17.408-38.7072-38.7072-38.7072s-38.7072 17.408-38.7072 38.7072 17.408 38.7072 38.7072 38.7072c4.9152 0 9.6256-0.8192 13.9264-2.4576l39.5264 36.4544a294.7072 294.7072 0 0 0-59.392 118.5792l-33.3824-6.144a51.58912 51.58912 0 0 0-50.9952-43.6224c-28.4672 0-51.6096 23.1424-51.6096 51.6096a51.65056 51.65056 0 0 0 96.4608 25.6l33.3824 6.144c-1.4336 12.288-2.2528 24.576-2.2528 36.864 0 51.6096 13.1072 99.9424 36.0448 142.336l-140.9024 87.2448a68.4032 68.4032 0 0 0-47.7184-19.2512 69.0176 69.0176 0 0 0-69.0176 68.8128c0 38.0928 30.9248 69.0176 69.0176 69.0176s68.8128-30.9248 68.8128-69.0176c0-6.9632-1.024-13.9264-3.072-20.6848l140.9024-87.2448c9.8304 14.1312 20.8896 27.2384 33.1776 39.3216 28.672 28.672 63.488 51.6096 101.9904 66.7648l-36.0448 109.7728a51.712 51.712 0 0 0-50.5856 51.6096c0 28.4672 23.1424 51.6096 51.8144 51.6096 28.4672 0 51.6096-23.1424 51.6096-51.6096 0-16.7936-7.9872-31.5392-20.2752-40.96l35.84-109.9776c24.3712 6.3488 49.7664 9.8304 76.1856 9.8304 11.6736 0 22.9376-0.6144 34.2016-1.8432l2.6624 15.7696a38.8096 38.8096 0 0 0 22.9376 70.0416c21.504 0 38.7072-17.408 38.7072-38.7072 0-17.6128-11.6736-32.3584-27.8528-37.2736l-2.6624-15.7696c50.3808-11.6736 95.6416-36.2496 132.7104-69.8368l81.92 80.2816a68.8128 68.8128 0 1 0 128.4096 34.4064c0-38.0928-30.72-69.0176-68.8128-69.0176-13.1072 0-25.1904 3.6864-35.6352 10.0352l-81.92-80.2816c42.1888-48.3328 69.0176-110.3872 72.9088-178.5856h105.8816a51.65056 51.65056 0 0 0 100.352-17.2032 51.65056 51.65056 0 0 0-100.352-17.2032h-105.8816c-3.8912-67.584-30.1056-129.024-71.68-177.152l161.792-156.2624c7.168 3.6864 15.1552 5.5296 23.1424 5.5296 28.4672 0 51.6096-23.1424 51.6096-51.8144 0-28.4672-23.1424-51.6096-51.6096-51.6096a51.65056 51.65056 0 0 0-46.8992 73.1136l-161.792 156.2624c-12.9024-11.8784-26.624-22.528-41.3696-31.9488l44.032-78.2336c2.8672 0.4096 5.9392 0.8192 8.8064 0.8192 28.4672 0 51.6096-23.1424 51.6096-51.6096 0-28.4672-23.1424-51.6096-51.6096-51.6096-28.4672 0-51.6096 23.1424-51.6096 51.6096 0 12.4928 4.5056 24.576 12.9024 33.9968l-43.8272 78.6432z m0 0" fill="#13227a" p-id="5534"></path></svg>